<svg xmlns="http://www.w3.org/2000/svg" version="1.1" xmlns:xlink="http://www.w3.org/1999/xlink" xmlns:svgjs="http://svgjs.dev/svgjs" viewBox="0 0 1422 800" opacity="0.21"><g fill="none" stroke-width="1" stroke="hsl(230, 55%, 40%)" stroke-linecap="round" stroke-dasharray="14"><path d=M1053.41 334.34C1075.65 356.71 1089.91 377.92 1094.68 398.08 1091.61 418.6 1078.87 438.76 1058.31 459.07 1032.87 480.67 1003.5 503.5 972.72 528.03 942.49 554.62 913.71 583.38 887.33 613.86 863.98 645.28 843.09 676.76 824.19 706.31 807.75 732.67 791.98 753.49 776.05 766.44 761.23 772.13 745.14 768.36 727.26 755.31 709.62 737.48 689.68 714.75 667.32 690.47 644.95 670.96 621.2 656.89 596.66 649.5 572.36 650.71 547.76 657.15 523.82 666.62 465.57 693.53 427.31 673.91 435.38 644.86 442.87 621.73 452.19 596.43 461.23 570.31 465.4 543.35 465.41 516.62 459.85 491 446.44 465.24 427.65 440.9 405.41 418.53 380.71 396.17 359.65 376.83 344.97 360.4 336.05 343.84 336.57 329.88 346.13 318.08 362.34 305.43 385.41 293.9 412.99 282.56 442.91 268.74 474 253.4 504.57 235.57 533.83 213.77 561.27 188.65 586.63 160.56 609.93 130 631.75 98.83 652.58 69.55 672.19 43.69 691.87 24.5 712.09 14.67 731.98 13.42 753.06 22.95 775.43 42.46 797.8 66.74 820.4 94 842.69 120.47 864.65 142.15 885.66 158.66 904.82 169.36 952.28 161.24 944.53 182.66 943.21 206.83 950.04 225.28 962.25 245.81 979.8 267.47 1003.11 289.5 1028.7 311.97 1053.4 334.33Q1053.41 334.34 1053.41 334.34" opacity="0.09"></path><path d="M999.41 345.93C1018.25 364.57 1031.43 384.11 1038.02 404.4 1039.45 424.88 1033.72 446.43 1021.69 469 1005.35 492.05 984.55 516.36 960.9 541.63 935.82 567.15 909.9 593.15 884.27 618.72 859.35 643.09 835.5 665.49 813.04 684.44 791.81 699.81 771.67 709.91 752.44 713.64 734.01 712.53 715.86 704.96 697.76 691.41 679.89 675.49 661.64 656.51 643 636.47 624.36 619.75 606.22 606.32 588.93 597.11 514.61 620.11 519.4 595.8 524.13 573.07 522.5 556.31 517.62 538.26 508.99 519.64 495.21 500.77 478.25 481.8 459.41 463.16 438.86 444.52 420.87 427.09 407.09 410.81 396.56 394.28 392.41 378.42 394.72 362.88 401.73 346.43 414.62 329.49 432.15 311.61 452.72 292.04 476.09 270.86 500.89 248.02 526.47 223.52 552.15 197.72 577.16 171.53 601.73 145.6 625.33 121.29 647.73 100.36 669.61 83.22 690.61 72 710.7 68.08 730.61 70.1 749.96 79.75 768.6 96.47 787.24 116.51 804.29 139.27 819.53 162.38 869.78 223.87 881.72 236.12 879.93 239.7 883.72 246.36 911.01 274.71 936.11 295.57 957.08 310.43 978.85 327.28 999.4 345.92Q999.41 345.93 999.41 345.93" opacity="0.91"></path><path d="M945.41 399.73C973.99 429.55 985.01 464.92 977.79 503.11 958.59 540.65 926.24 578.89 887.91 612.33 847.12 639.28 806.33 654.4 768.88 652.68 732.28 640.84 698.4 615.31 668.58 582.47 627.28 550.06 583.61 544.44 582.44 550.19 581.68 552.89 582.4 546.15 579.74 530.29 565.1 512.84 541.99 488.29 513.41 458.46 480.5 428.64 458.25 396.37 451.24 362.13 454.96 326.31 474.57 286.5 504.49 244.72 539.88 203.22 578.89 164.9 616.55 137.57 654.53 122.2 689.66 126.01 719.49 150.47 749.31 183.31 771.01 220.92 784.71 254.63 798.74 278.2 806.27 294.72 809.97 306.85 819.13 312.5 831.15 320.81 849.29 334.95 878.16 348.44 912.5 369.9 945.4 399.72Q945.41 399.73 945.41 399.73" opacity="0.46"></path><path d="M891.41 453.74C913.65 476.11 925.32 500.45 925.93 524.47 919.96 547.3 904.29 567.52 882.38 581.83 857.2 592.01 829.25 593.55 801.8 585 773.85 572.62 747.65 552.75 725.28 528.47 694.7 500.88 660.89 475.79 653.27 471.55 645.87 471.17 637.82 466.6 627.39 456.53 610.38 446.59 589.65 430.48 567.41 408.11 542.71 385.74 524.45 359.23 514.9 330.41 510.03 301.72 515.24 271.38 528.48 242.45 545.62 216.16 567.85 194.86 591.89 182.73 616.94 177.87 641.78 184.95 664.15 204.47 686.52 228.75 704.3 257.68 718.01 286.45 732.74 311.4 745.41 333.59 757.58 352.72 773.66 367.73 792.18 382.41 813.43 398.34 839.38 413.09 866.7 431.36 891.4 453.73Q891.41 453.74 891.41 453.74" opacity="0.61"></path><path d="M837.41 465.78C868.21 506.66 817.28 516.32 771.5 474.47 741.68 450.01 719.6 428.19 702.56 410.29 678.6 399.58 649.99 381.25 621.41 351.43 581.02 303.77 601.02 235.19 643.18 258.47 673 291.31 702.33 333.51 730.97 371.39 765.35 404.08 804.5 435.96 837.41 465.78Q837.41 465.78 837.41 465.78" opacity="0.40"></path></g></svg>