<svg xmlns="http://www.w3.org/2000/svg" version="1.1" xmlns:xlink="http://www.w3.org/1999/xlink" xmlns:svgjs="http://svgjs.dev/svgjs" viewBox="0 0 800 800"><defs><filter id="ssspot-filter" x="-20%" y="-20%" width="140%" height="140%" filterUnits="objectBoundingBox" primitiveUnits="userSpaceOnUse" color-interpolation-filters="sRGB">
	<feTurbulence type="turbulence" baseFrequency="0.022 0.218" numOctaves="2" seed="2" stitchTiles="stitch" x="0%" y="0%" width="100%" height="100%" result="turbulence"></feTurbulence>
	<feGaussianBlur stdDeviation="0 3" x="0%" y="0%" width="100%" height="100%" in="turbulence" edgeMode="duplicate" result="blur"></feGaussianBlur>
	<feDisplacementMap in="SourceGraphic" in2="blur" scale="32" xChannelSelector="R" yChannelSelector="B" x="0%" y="0%" width="100%" height="100%" result="displacementMap"></feDisplacementMap>
</filter></defs><rect width="100%" height="100%" fill="hsl(193, 19%, 95%)"></rect><g fill="hsl(32, 0%, 100%)" filter="url(#ssspot-filter)"><circle r="4.6324482559583" cx="508.1952417681412" cy="505.02856334285656" opacity="0.7857333928322189"></circle><circle r="5.212810270900466" cx="399.9903240996344" cy="14.129564677100655" opacity="0.975615936400934"></circle><circle r="3.526049015793139" cx="112.52777478276842" cy="601.8454808722008" opacity="0.49719400821682835"></circle><circle r="6.618567558480468" cx="770.0915545288722" cy="163.32308188027594" opacity="0.24919235470256398"></circle><circle r="4.674247545358163" cx="491.7179929466357" cy="528.4070883898017" opacity="0.6310004259988623"></circle><circle r="7.284192482462623" cx="393.7975929726971" cy="363.88589028694616" opacity="0.3340739468850303"></circle><circle r="3.578206748162057" cx="646.4789940037687" cy="525.5130185826557" opacity="0.3481201876258133"></circle><circle r="5.803474618482937" cx="29.967546313223547" cy="499.9267729412211" opacity="0.6950632733141715"></circle><circle r="6.192198188312179" cx="264.6519442459422" cy="179.0756405802995" opacity="0.3633776629834752"></circle><circle r="4.679846483919215" cx="637.4364293484842" cy="98.78112483277421" opacity="0.5997307697804374"></circle><circle r="6.155423331286583" cx="353.6326404777456" cy="692.8509985248471" opacity="0.17593805882511676"></circle><circle r="6.033146474279606" cx="609.5994893914976" cy="120.9959208619215" opacity="0.16658481269744652"></circle><circle r="4.590848068589981" cx="651.9446952861626" cy="425.4388319797152" opacity="0.4066763430082754"></circle><circle r="8.803316489006054" cx="535.2469483148861" cy="358.2393655143098" opacity="0.4240254836993971"></circle><circle r="4.666619064427502" cx="297.21289042191506" cy="386.86655434250406" opacity="0.4084441519249934"></circle><circle r="6.48491709696846" cx="349.5293234067922" cy="155.466811024082" opacity="0.40264629973532096"></circle><circle r="4.654279235878089" cx="564.5631822527503" cy="386.46839923540097" opacity="0.6646553473758923"></circle><circle r="8.968197497818881" cx="309.15518943027035" cy="512.4630941732574" opacity="0.3172037059675501"></circle><circle r="8.057361325807154" cx="257.21373538626483" cy="543.3681065596655" opacity="0.9347931265295489"></circle><circle r="6.72595281918494" cx="781.8229311393886" cy="319.3073078910846" opacity="0.8496229079894358"></circle><circle r="5.977507021511184" cx="478.3228109335424" cy="736.1532568214375" opacity="0.18961054314975875"></circle><circle r="3.4074800200061084" cx="753.9992537502351" cy="126.44040402278067" opacity="0.6439586912030911"></circle><circle r="3.4695802781290244" cx="11.959773766800037" cy="366.56188718405645" opacity="0.818548711055667"></circle><circle r="4.387491973739798" cx="678.835902641938" cy="69.89037963225695" opacity="0.12305990400092245"></circle><circle r="4.645681720460864" cx="348.18943467895144" cy="548.4249168437959" opacity="0.5502206010015923"></circle><circle r="6.918729952175099" cx="343.531339121596" cy="473.23426400594764" opacity="0.9557330389621628"></circle><circle r="3.992141127378396" cx="195.60760610115437" cy="435.5205352923854" opacity="0.897750550010048"></circle><circle r="8.049983211152396" cx="88.84121519499836" cy="674.5052055833714" opacity="0.8714584742065459"></circle><circle r="4.846552474119743" cx="293.375338240601" cy="740.7261049933607" opacity="0.5452531586802459"></circle><circle r="9.374327123194345" cx="315.1916084619648" cy="220.35875518841158" opacity="0.12803847186903772"></circle><circle r="5.15027398403433" cx="258.8711163086459" cy="12.367389233088355" opacity="0.4536465917287803"></circle><circle r="6.375116226882852" cx="386.37904396783273" cy="542.425221084764" opacity="0.6972467554547693"></circle><circle r="5.690811854955791" cx="127.03294176804346" cy="236.93499178686307" opacity="0.20386064709583446"></circle><circle r="3.6823539641444882" cx="334.362596082651" cy="20.832415578594915" opacity="0.8614167272023693"></circle><circle r="5.087120037376868" cx="749.242607462388" cy="490.84315080026744" opacity="0.8419855471668852"></circle><circle r="4.632048159419719" cx="607.2247076213848" cy="89.14069857216458" opacity="0.1114834760966471"></circle><circle r="2.658320186437461" cx="336.59911961047317" cy="665.8670667993423" opacity="0.38027635109838864"></circle><circle r="5.102639100657198" cx="573.7323646356925" cy="49.59006929823622" opacity="0.7637303362342959"></circle><circle r="4.637377112255046" cx="171.48048385724337" cy="17.61065899391159" opacity="0.8697748648123581"></circle><circle r="7.817260687939716" cx="200.76125015954858" cy="726.7328119544466" opacity="0.2829911201527069"></circle><circle r="4.0983475516990975" cx="548.7459501766118" cy="729.0002723256501" opacity="0.2841194233538631"></circle><circle r="2.948598014561304" cx="351.9821435033529" cy="525.7842937191964" opacity="0.6495608264230138"></circle><circle r="6.842991499562772" cx="34.01588674325967" cy="609.4529749615142" opacity="0.42163742164696594"></circle><circle r="6.399169427960128" cx="49.60227947302977" cy="541.0045636201814" opacity="0.7329328342186207"></circle><circle r="3.9654170970048184" cx="438.7334528291765" cy="458.1626602903166" opacity="0.5005402612593783"></circle><circle r="6.845909047141879" cx="250.27161525937612" cy="446.142081642783" opacity="0.3708124637527088"></circle><circle r="6.850034962205482" cx="259.9894998383617" cy="149.58201706582312" opacity="0.16046734647307942"></circle><circle r="3.765842431371052" cx="301.3261047945337" cy="702.6869747262056" opacity="0.5361284332003382"></circle><circle r="7.103166339620418" cx="541.1234895524537" cy="206.43601985255222" opacity="0.8325044174899513"></circle><circle r="5.307784210069674" cx="376.4782946430051" cy="338.18294895384173" opacity="0.6446523223627947"></circle><circle r="4.698481717137547" cx="684.3129624722828" cy="448.74871827467996" opacity="0.3962675000675244"></circle><circle r="4.010847027102658" cx="769.2668458862865" cy="786.9822652536166" opacity="0.761939160509858"></circle><circle r="3.1982753110365847" cx="668.1666999140408" cy="574.6030755199944" opacity="0.49980289939527045"></circle><circle r="3.860529450445566" cx="239.81336931401938" cy="791.2746928565695" opacity="0.8819167761544922"></circle><circle r="9.001239114096759" cx="217.4738525482596" cy="106.76678852188354" opacity="0.3064241856258586"></circle><circle r="8.170957364612194" cx="102.244242087963" cy="707.927649089336" opacity="0.5263234026111614"></circle><circle r="6.900096706528613" cx="19.35277926434852" cy="562.8292182400417" opacity="0.6340774503578991"></circle><circle r="5.911154153081936" cx="535.0691593404216" cy="258.15566307942686" opacity="0.859386738568967"></circle><circle r="5.333539271258125" cx="264.29993247510566" cy="747.5642312910295" opacity="0.960696602412438"></circle><circle r="4.389948733335412" cx="563.8960803749927" cy="288.2071530563503" opacity="0.3292019288306178"></circle><circle r="5.233168944925233" cx="700.4284632384936" cy="164.1669283171766" opacity="0.17521852289399792"></circle><circle r="4.737101453022175" cx="274.0821774154082" cy="715.1924813438201" opacity="0.33322428262922715"></circle><circle r="2.9343774437788763" cx="486.3527810440791" cy="263.34384833506476" opacity="0.8187828858219884"></circle><circle r="1.5401658572796157" cx="118.62285606688248" cy="6.141311909036473" opacity="0.914547128596286"></circle><circle r="5.198797963455608" cx="349.43933601225876" cy="498.38394229342316" opacity="0.6144423367461052"></circle><circle r="5.180313138360143" cx="145.92563863215145" cy="162.34216559569597" opacity="0.28903204930689147"></circle><circle r="5.138586168569391" cx="710.0264879977859" cy="754.4607686253158" opacity="0.7385074012038142"></circle><circle r="4.747227964502276" cx="548.3793514101596" cy="18.874821519298788" opacity="0.8943834021829083"></circle><circle r="8.841109942339704" cx="484.4093236814219" cy="389.26968889394044" opacity="0.2446896373230334"></circle><circle r="5.658450235919562" cx="579.4397438195823" cy="13.964479231940041" opacity="0.11098868615537155"></circle><circle r="7.038945927330211" cx="285.1605137588636" cy="575.7570408477087" opacity="0.25450239586010115"></circle><circle r="4.147731228349451" cx="449.2447705240406" cy="716.0109202164144" opacity="0.6524603423411729"></circle><circle r="7.264695572761221" cx="148.95131701994814" cy="655.1112507721347" opacity="0.7040994091667712"></circle><circle r="6.651462973053461" cx="347.7620161321039" cy="69.7974476365252" opacity="0.21901748085511044"></circle><circle r="4.8539913785051105" cx="629.2529910556013" cy="745.2251209469541" opacity="0.7789748439070038"></circle><circle r="4.746084970965171" cx="762.3732096698561" cy="619.6258050997346" opacity="0.8890165208369284"></circle><circle r="7.2430063975617855" cx="500.6582262236296" cy="671.4455827000813" opacity="0.3809363748411698"></circle><circle r="4.441339509514211" cx="621.1082383061421" cy="782.1709117536591" opacity="0.6653805183309346"></circle><circle r="8.326796752161613" cx="690.0382881948887" cy="666.3611951628671" opacity="0.4277653587136486"></circle><circle r="4.974185283919519" cx="726.3827499162327" cy="612.5568964478617" opacity="0.14413137699307205"></circle><circle r="7.431408859794694" cx="587.6581827100384" cy="542.9521627985579" opacity="0.45108583544223235"></circle><circle r="5.002604512234561" cx="154.6351659126063" cy="191.1165370598008" opacity="0.8301405973364996"></circle><circle r="3.5095058449904473" cx="13.7017133063293" cy="754.8991429777819" opacity="0.5540765920115606"></circle><circle r="4.312950849150596" cx="314.7104098691783" cy="148.04694458754045" opacity="0.5286540024892872"></circle><circle r="6.313536914034293" cx="636.9212936214" cy="38.79654691841641" opacity="0.3936884550057339"></circle><circle r="5.245639258316043" cx="693.0397972250834" cy="405.1680137249817" opacity="0.8125675426980158"></circle><circle r="7.263500025772329" cx="527.2266832551303" cy="694.0918353334177" opacity="0.3916185540336642"></circle><circle r="6.825275361225003" cx="55.8746419988413" cy="759.6048111047553" opacity="0.2963094004501179"></circle><circle r="5.913666531145766" cx="263.8760173749452" cy="114.6788239562375" opacity="0.4423711235039127"></circle><circle r="6.680732951962712" cx="77.80160998468838" cy="521.8116531484269" opacity="0.5723245648685018"></circle><circle r="7.328573197418121" cx="188.63664354062922" cy="401.8472387011521" opacity="0.6593382796853511"></circle><circle r="3.490264271487151" cx="56.332785964984105" cy="789.1292017366205" opacity="0.3320315258423502"></circle><circle r="5.045465050293929" cx="785.4236501956618" cy="17.267865452186783" opacity="0.5935884156783617"></circle><circle r="5.691349999609045" cx="31.120935193585815" cy="778.3067282771715" opacity="0.558091725533186"></circle><circle r="6.162600953734458" cx="360.3557691534241" cy="720.37435733686" opacity="0.47264273252905575"></circle><circle r="7.992545654451872" cx="703.125300921068" cy="361.3186276087774" opacity="0.8868261687164657"></circle><circle r="4.044928745011145" cx="707.8699681761382" cy="709.2699344695493" opacity="0.8653758491779326"></circle><circle r="5.877890501883309" cx="387.6229336424601" cy="471.95487242984495" opacity="0.7950138039953927"></circle><circle r="6.158402107225282" cx="730.1749950050541" cy="514.887417878943" opacity="0.6453789167154416"></circle><circle r="3.559536898034379" cx="778.9047265743052" cy="748.0010473153503" opacity="0.5019830498035511"></circle><circle r="5.4588533841201174" cx="640.6355513755856" cy="331.6753358130363" opacity="0.28761016650295723"></circle><circle r="9.845045968762157" cx="141.7047959678794" cy="689.8444762798608" opacity="0.5548000700652648"></circle><circle r="5.516447706230716" cx="133.10177703026437" cy="68.98534006316169" opacity="0.7382460734476551"></circle><circle r="6.986971492063979" cx="232.78157218586077" cy="184.5821431133626" opacity="0.7843189323328891"></circle><circle r="4.415538252720387" cx="244.44105247955196" cy="80.69049061274767" opacity="0.18437345123288423"></circle><circle r="5.193872131009626" cx="172.04034741038222" cy="336.853725667694" opacity="0.8975792313854118"></circle><circle r="6.36213638188554" cx="378.4317771188023" cy="206.73207987862725" opacity="0.8513270188503438"></circle><circle r="5.507002662583339" cx="15.748575128652545" cy="338.27009010125124" opacity="0.7107235016580903"></circle><circle r="5.627864006183577" cx="664.0695818403912" cy="105.77339920936937" opacity="0.5653912589448404"></circle><circle r="5.6124139401689455" cx="232.42316009462857" cy="255.97011067344417" opacity="0.6830866120909107"></circle><circle r="7.493774525693879" cx="435.32505472986213" cy="584.5135442044682" opacity="0.15159974824803352"></circle><circle r="3.4493859187569766" cx="366.7620168014782" cy="231.18025593616315" opacity="0.966019865331706"></circle><circle r="4.580650299133134" cx="202.95730334858263" cy="73.32393064815854" opacity="0.9480182516627673"></circle><circle r="4.654159293131346" cx="34.80727536754669" cy="462.9140885853922" opacity="0.2735717160681411"></circle><circle r="7.65133398744903" cx="621.0991897167639" cy="599.9304430575573" opacity="0.9403288509000007"></circle><circle r="6.427367745978512" cx="533.3967584091766" cy="437.29062718632457" opacity="0.10071943728003907"></circle><circle r="6.825121140017503" cx="129.03070364936883" cy="463.58702604312356" opacity="0.8832371757846303"></circle><circle r="6.1775156768274515" cx="390.73636564135904" cy="106.69993692568842" opacity="0.9056228383478951"></circle><circle r="5.778393045505836" cx="458.72397304938636" cy="544.119833990676" opacity="0.3304680306414145"></circle><circle r="7.861547398310195" cx="242.76660622498727" cy="584.5361062546751" opacity="0.36947040269802056"></circle><circle r="3.33603528231317" cx="601.7658016225994" cy="728.35776814999" opacity="0.5285886900182137"></circle><circle r="6.753502381442525" cx="639.0979212479407" cy="678.9323849367598" opacity="0.14869274268813049"></circle><circle r="7.196837568481918" cx="457.97727778799907" cy="127.33803715457495" opacity="0.6269062531642243"></circle><circle r="8.77421933681343" cx="223.58692005386465" cy="144.73335658751355" opacity="0.543669389698257"></circle><circle r="4.448043686443295" cx="209.93346203520187" cy="655.6258380843639" opacity="0.458082310074884"></circle><circle r="6.050158585592508" cx="117.55963365856113" cy="115.68986765323699" opacity="0.2460566430571057"></circle><circle r="6.503934109128244" cx="330.8800212987809" cy="713.3258659794425" opacity="0.8959574382612151"></circle><circle r="4.558682660845149" cx="618.5622000121906" cy="377.23544498455254" opacity="0.6404016026221049"></circle><circle r="8.408765651118395" cx="630.0262807559681" cy="227.10215470007725" opacity="0.7553243559023105"></circle><circle r="3.141632532551645" cx="356.0006666086084" cy="34.854060627087634" opacity="0.19065505495192706"></circle><circle r="5.958989880607739" cx="56.21097174659323" cy="160.0430639020365" opacity="0.2871806191357075"></circle><circle r="4.820543588206746" cx="336.96890823389475" cy="124.80399143511492" opacity="0.7178337037490714"></circle><circle r="3.570614262029907" cx="411.4705506746843" cy="53.40057915664328" opacity="0.6148044946178202"></circle><circle r="4.963373865880502" cx="533.9879362150556" cy="322.28927437676083" opacity="0.2706210296001811"></circle><circle r="4.559311972413267" cx="640.1051992875668" cy="138.1349831133211" opacity="0.4542063789383525"></circle><circle r="5.825406474917857" cx="621.773158653479" cy="481.4591486553726" opacity="0.47917376032630987"></circle><circle r="6.249627157959779" cx="416.3121351622637" cy="130.83803698939377" opacity="0.44215022538778026"></circle><circle r="4.505423562781626" cx="593.424553270645" cy="305.19667132110345" opacity="0.31216811039967995"></circle><circle r="4.106021202697555" cx="678.7338774648003" cy="551.6587897197297" opacity="0.5662396899164975"></circle><circle r="4.587162405187576" cx="609.8422413922857" cy="459.3911207098944" opacity="0.38356286692846475"></circle><circle r="5.952389931857276" cx="351.28717541830184" cy="638.128189871534" opacity="0.8031814233054058"></circle><circle r="4.7939535024647375" cx="739.9455005551495" cy="462.313739939804" opacity="0.1633741700231101"></circle><circle r="3.452590292052444" cx="58.85810678536677" cy="135.31286587690389" opacity="0.6064302530873841"></circle><circle r="9.114550726015624" cx="477.443798484847" cy="21.8800056886466" opacity="0.7811189929851163"></circle><circle r="7.34531354279728" cx="510.7845910467964" cy="36.94485263671623" opacity="0.642604246877573"></circle><circle r="4.061524616673836" cx="756.6076464256827" cy="43.50700501861489" opacity="0.18287796754785166"></circle><circle r="5.260093529982626" cx="656.1073763071113" cy="719.9556013242994" opacity="0.999221713070297"></circle><circle r="7.165583499400917" cx="154.59031676113372" cy="225.9623514468691" opacity="0.7696781500875554"></circle><circle r="7.772789502573753" cx="557.6464568455223" cy="609.5409489350137" opacity="0.378018114358009"></circle><circle r="2.298043237580369" cx="793.0981997524756" cy="759.2496472253192" opacity="0.4931591649523276"></circle><circle r="6.086159653830503" cx="750.0439078240634" cy="286.9090914310469" opacity="0.1648231821472273"></circle><circle r="3.9952201623362917" cx="350.65694669556774" cy="8.136825222052957" opacity="0.22555343027357064"></circle><circle r="9.722549852362661" cx="166.34452867622628" cy="295.47772561760087" opacity="0.8427444425607007"></circle><circle r="6.880490478912838" cx="227.38778483170208" cy="513.0417341419113" opacity="0.7149345903665739"></circle><circle r="4.969717523094401" cx="453.835120541522" cy="47.77256617507641" opacity="0.3017106378818928"></circle><circle r="3.55436060156805" cx="82.76133336484091" cy="115.95471241356356" opacity="0.4486155963752183"></circle><circle r="6.188427635477394" cx="71.45229667291058" cy="305.2371342893276" opacity="0.21258675923485348"></circle><circle r="5.472469729478355" cx="388.43245219049794" cy="736.6208030014124" opacity="0.8725564669741337"></circle><circle r="7.487451034717683" cx="554.1174893470438" cy="675.6277603716208" opacity="0.8201882581865633"></circle><circle r="4.992198356271058" cx="414.12787438278093" cy="443.42041476816445" opacity="0.19598133118472927"></circle><circle r="6.693391896848544" cx="200.1819722702192" cy="181.12506971712432" opacity="0.6387446344897868"></circle><circle r="3.995509607022437" cx="15.447458640278995" cy="531.3870777524367" opacity="0.49521580954072175"></circle><circle r="5.365337754132671" cx="730.6657528027199" cy="748.1758384229131" opacity="0.2985799000048093"></circle><circle r="5.62769226485856" cx="113.19011057522627" cy="534.2137601381481" opacity="0.34656169072375465"></circle><circle r="8.094217489846825" cx="15.490367994064732" cy="636.5081944311613" opacity="0.9142848685740124"></circle><circle r="5.744536827662374" cx="685.6711481780482" cy="760.8798352966172" opacity="0.8648775866533601"></circle><circle r="5.121497652682076" cx="362.5339256875782" cy="274.25009339742337" opacity="0.1997863615128011"></circle><circle r="3.4532874511328044" cx="651.3473773475571" cy="620.6074925974162" opacity="0.6168942785332995"></circle><circle r="6.957370309693885" cx="253.41589142449698" cy="323.20528015482677" opacity="0.30195530295196615"></circle><circle r="5.208354235460616" cx="627.2045804424409" cy="564.9841758640506" opacity="0.24064016575532884"></circle><circle r="5.659971187054138" cx="425.50799920367086" cy="157.70776849534627" opacity="0.8043209966840611"></circle><circle r="5.186678149014867" cx="745.8964869694964" cy="151.05545042468236" opacity="0.8477205923571548"></circle><circle r="6.536591709575838" cx="473.2861362969675" cy="602.156886225783" opacity="0.9068961779789669"></circle><circle r="3.8330680982128342" cx="583.6415486993598" cy="471.9100641192725" opacity="0.8632717502213278"></circle><circle r="7.001465660207016" cx="175.46182739985323" cy="537.5628596359275" opacity="0.12738700069699938"></circle><circle r="7.345133996604412" cx="455.34330213182676" cy="286.5810793403294" opacity="0.9304923335635913"></circle><circle r="7.866268636699298" cx="204.58437486654384" cy="777.7988920797627" opacity="0.638211670723525"></circle><circle r="7.324422013492036" cx="244.84608774045995" cy="287.7428494416658" opacity="0.7647733974149012"></circle><circle r="4.232797608232239" cx="389.1363681768809" cy="47.53045526897779" opacity="0.8520318930940906"></circle><circle r="4.179571871709596" cx="716.0181892452451" cy="787.985227805866" opacity="0.897556765679459"></circle><circle r="3.481868121739391" cx="142.21772259830493" cy="21.34640598220877" opacity="0.835808066522563"></circle><circle r="7.09251879023674" cx="396.22401506785087" cy="177.273823729527" opacity="0.6305405427135922"></circle><circle r="7.035704491287263" cx="521.3518201582267" cy="396.48561186241733" opacity="0.8361249201755403"></circle><circle r="5.1565532955762325" cx="789.2181939769997" cy="187.48225965620625" opacity="0.2568252524277922"></circle><circle r="5.51761460465614" cx="118.6000231355883" cy="194.2642618437077" opacity="0.23090900523718438"></circle><circle r="5.705722887221754" cx="50.31276750968331" cy="109.5549913598421" opacity="0.855402056930193"></circle><circle r="5.371703439590472" cx="361.55116935932034" cy="307.4795724574245" opacity="0.5413356389099534"></circle><circle r="4.044523926443766" cx="665.0146639512574" cy="788.7724806715112" opacity="0.7428253146446986"></circle><circle r="4.5790877980642675" cx="283.44340182884196" cy="468.6330399172836" opacity="0.2128009432313192"></circle><circle r="4.507289687658458" cx="428.7995215523792" cy="77.01087927978767" opacity="0.12185369168061227"></circle><circle r="4.81811057437277" cx="131.00731834498924" cy="302.23083795975367" opacity="0.11124277677169891"></circle><circle r="7.068417982757644" cx="164.11236551889257" cy="256.6193511925123" opacity="0.5184517967404118"></circle><circle r="6.8244284975765925" cx="131.01712856246235" cy="759.9337125378621" opacity="0.26584623991425804"></circle><circle r="5.023138489852202" cx="131.9080160520488" cy="609.8994409636819" opacity="0.5793739714185558"></circle><circle r="5.636326832576116" cx="588.1283858755406" cy="435.8793741241329" opacity="0.3176332140552806"></circle><circle r="5.279541474834373" cx="375.2718755585259" cy="12.99145761770593" opacity="0.588477979119637"></circle><circle r="8.528168544406096" cx="378.57995869078644" cy="141.4731236322524" opacity="0.20246777709820207"></circle><circle r="8.192237673849714" cx="195.82386726195858" cy="365.0640339148107" opacity="0.9118531976794627"></circle><circle r="5.888614765579142" cx="175.7760434126328" cy="459.4699526562624" opacity="0.3111094517260596"></circle><circle r="5.299578759710127" cx="143.04379054295566" cy="521.5055127181662" opacity="0.4288407073905135"></circle><circle r="3.9512813317592816" cx="449.876188336971" cy="237.00711449557153" opacity="0.9112436790275121"></circle><circle r="8.622929775102149" cx="462.68319828548437" cy="424.7008922640843" opacity="0.32013655240388933"></circle><circle r="5.237009187651148" cx="661.5384257421557" cy="18.509442920079906" opacity="0.7065058555802335"></circle><circle r="5.561014358150517" cx="347.6357887483783" cy="245.91704548563663" opacity="0.26391938657748987"></circle><circle r="8.766886614310385" cx="544.57028699561" cy="96.55266532165747" opacity="0.6020336472976626"></circle><circle r="3.3516909475544625" cx="780.430501534357" cy="284.74651335686593" opacity="0.7920871879502509"></circle><circle r="9.124775421030133" cx="537.1157285183998" cy="58.485342102374986" opacity="0.6344395325130292"></circle><circle r="3.492467849253501" cx="249.1611439174367" cy="49.98943597817857" opacity="0.5686555632873779"></circle><circle r="7.178510301490977" cx="587.2758264651956" cy="260.7622062167747" opacity="0.5705970208131754"></circle><circle r="6.514185270708141" cx="287.3345325821465" cy="665.746186700997" opacity="0.6887349149159134"></circle><circle r="6.356942811520284" cx="585.1903867549004" cy="749.7044748681386" opacity="0.26116939494982894"></circle><circle r="4.405041325938765" cx="574.8459237504134" cy="707.8654337858403" opacity="0.4451708219417373"></circle><circle r="7.544018103919842" cx="726.2929578698221" cy="394.8448208750551" opacity="0.8323972524775639"></circle><circle r="4.72486527959804" cx="623.236977276506" cy="435.84704709794573" opacity="0.2285870027764981"></circle><circle r="5.551697964351251" cx="782.6518870925728" cy="88.24756060694759" opacity="0.641379280716905"></circle><circle r="4.0022868986871565" cx="566.4183390399313" cy="790.7500855990875" opacity="0.21230947486716328"></circle><circle r="6.695625734946525" cx="237.34023755155891" cy="764.8873750354071" opacity="0.524768991085026"></circle><circle r="2.6890555533682385" cx="542.3056210658058" cy="166.7795431827944" opacity="0.7437312097251257"></circle><circle r="6.775053018319488" cx="625.4643084597277" cy="262.414270154901" opacity="0.7855831632857205"></circle><circle r="3.5911447629585767" cx="57.2686579339883" cy="623.2681220302173" opacity="0.4839271686813422"></circle><circle r="6.409258868090401" cx="412.78030291482247" cy="405.69990669537356" opacity="0.17551539139800718"></circle><circle r="5.465048479096488" cx="392.46890534686503" cy="785.3176892473927" opacity="0.8533310468716004"></circle><circle r="3.5225047603432333" cx="788.4265556313339" cy="137.50099345534016" opacity="0.7470817876312028"></circle><circle r="4.7650714052754655" cx="319.43958798095275" cy="611.4402397611161" opacity="0.22106145845416653"></circle><circle r="6.335697421439003" cx="604.0614659372109" cy="55.00748404775573" opacity="0.15846678999167466"></circle><circle r="4.1254804674602905" cx="49.563248974992774" cy="578.5886157646253" opacity="0.8972603440089721"></circle><circle r="9.326476863447713" cx="229.6813850159547" cy="410.9928195603405" opacity="0.954665844436459"></circle><circle r="9.946314700383834" cx="439.255609428412" cy="371.5428690623415" opacity="0.8065573319140193"></circle><circle r="3.7561242837702125" cx="725.7392784022707" cy="135.73837907184165" opacity="0.7295593267613704"></circle><circle r="4.40655102501772" cx="385.80683471297283" cy="291.043276085882" opacity="0.5154878797988639"></circle><circle r="6.097764575802898" cx="768.4979070663733" cy="714.0641194627951" opacity="0.6161498931334011"></circle><circle r="4.760714532360954" cx="665.0013624539797" cy="358.81186299902663" opacity="0.8782307758552559"></circle><circle r="6.908413046100996" cx="70.23764150247264" cy="345.46375000442885" opacity="0.7215772559134568"></circle><circle r="4.874598813641795" cx="753.8761666477692" cy="733.8463813182816" opacity="0.19517565870320874"></circle><circle r="7.257134951751763" cx="738.5222602795294" cy="317.08946282489086" opacity="0.9202036568168463"></circle><circle r="4.9477488515701245" cx="423.1805111443042" cy="730.7560605083981" opacity="0.6947874538802067"></circle><circle r="4.504386665367186" cx="752.071404953036" cy="762.6425746256763" opacity="0.6216994305157404"></circle><circle r="8.294311717502486" cx="225.5151002063021" cy="696.5364444099109" opacity="0.27516768227122257"></circle><circle r="6.755933658485001" cx="426.91628097477036" cy="685.9662541173029" opacity="0.6530165232868917"></circle><circle r="2.7515013744527357" cx="110.8697134173579" cy="21.866176550641427" opacity="0.3262451472050507"></circle><circle r="3.3833976673272663" cx="688.7363332361494" cy="116.7598304004053" opacity="0.5811697551537824"></circle><circle r="7.48310452476402" cx="653.6359533627059" cy="761.7156075097529" opacity="0.34825553641177176"></circle><circle r="3.904373024613803" cx="515.5754885270757" cy="9.440324027667236" opacity="0.354273004098417"></circle><circle r="3.7221605619389964" cx="290.1117652147097" cy="158.34955251637152" opacity="0.39230799149460616"></circle><circle r="5.107575009968454" cx="701.8204421330374" cy="134.15597577267985" opacity="0.3788545087565123"></circle><circle r="5.0094479182412694" cx="231.3448954282661" cy="641.8316040907118" opacity="0.694749398361646"></circle><circle r="6.794207186555445" cx="608.3286353552948" cy="18.62493044019904" opacity="0.45000617530088693"></circle><circle r="3.185238678156224" cx="41.86100579855489" cy="404.8872564626232" opacity="0.9331178798459436"></circle><circle r="8.463650017852554" cx="273.60069692279194" cy="412.0209210272313" opacity="0.10762250600621788"></circle><circle r="3.2273104381746855" cx="687.0689854491284" cy="592.9030865571742" opacity="0.5775509029746618"></circle><circle r="4.554481968412603" cx="266.6247843969995" cy="689.2548521088023" opacity="0.44282193903216416"></circle><circle r="5.5826190820287085" cx="632.1783791971428" cy="67.04206108042742" opacity="0.39900600486465576"></circle><circle r="5.218387324673635" cx="273.95644363244446" cy="203.4388684969703" opacity="0.4079614650979948"></circle><circle r="4.668535814976056" cx="330.21238807829207" cy="270.4916634059113" opacity="0.5948947700989794"></circle><circle r="4.7170373605694005" cx="161.45932051375829" cy="59.42180427283159" opacity="0.5187906351002751"></circle><circle r="5.098780808202772" cx="16.377700530498032" cy="183.230450385035" opacity="0.9986289130811197"></circle><circle r="4.687785387111626" cx="430.4946525403983" cy="323.3621041031383" opacity="0.1887943346610672"></circle><circle r="5.304847730900162" cx="674.9257206510181" cy="507.51122086959384" opacity="0.5407362381748844"></circle><circle r="4.659111694360304" cx="577.708142372616" cy="203.75621570879767" opacity="0.6841043639322618"></circle><circle r="6.018115895692141" cx="85.66649429216176" cy="189.24824445460186" opacity="0.8830578956605567"></circle><circle r="6.469157561990995" cx="81.32256478357323" cy="407.9747770076792" opacity="0.10821689142016527"></circle><circle r="7.5619812075142665" cx="727.9017052914633" cy="258.1952767645655" opacity="0.4086402405246423"></circle><circle r="3.8271505670550185" cx="565.4009672904716" cy="419.73744941542407" opacity="0.7085065281662084"></circle><circle r="6.838492907954606" cx="165.6662164616652" cy="99.84434067520316" opacity="0.591728673067681"></circle><circle r="3.949764050119817" cx="748.660116461116" cy="71.81554631804784" opacity="0.7583093004697128"></circle><circle r="6.680232097439745" cx="109.6681930915499" cy="85.74029623937741" opacity="0.9992121956788911"></circle><circle r="4.367721472521362" cx="609.5169170761536" cy="145.57307572958186" opacity="0.6093175948404442"></circle><circle r="5.6651108620646236" cx="500.4885165948036" cy="281.37347250313843" opacity="0.8241189686423978"></circle><circle r="4.078420408419994" cx="547.3385291508279" cy="494.62534159609606" opacity="0.980346150265035"></circle><circle r="8.081716026886516" cx="212.27650001054278" cy="550.4160708753608" opacity="0.486995236964456"></circle><circle r="5.389857141058338" cx="355.74370832526984" cy="607.5915422445679" opacity="0.38830116122302094"></circle><circle r="4.189180860842285" cx="271.76158353978724" cy="622.0752820738393" opacity="0.24744242337554245"></circle><circle r="6.66710086362215" cx="22.925466935763634" cy="680.1119696678885" opacity="0.885591897944993"></circle><circle r="4.13749236514984" cx="267.4002583693375" cy="38.98599728617226" opacity="0.7480790461378035"></circle><circle r="4.359680070912254" cx="785.8120255249703" cy="53.429141656043946" opacity="0.38178317931355876"></circle><circle r="5.928288528963166" cx="318.70028122752376" cy="412.4262130322782" opacity="0.1496153021414498"></circle><circle r="3.6923649889751893" cx="315.390661230333" cy="735.9711400513974" opacity="0.8655005488709189"></circle><circle r="5.924763339276793" cx="591.567151224602" cy="781.0734134456485" opacity="0.2450317018424227"></circle><circle r="7.962616789119615" cx="186.1737100068958" cy="682.573299771786" opacity="0.8367738804533209"></circle><circle r="4.3783105111206995" cx="429.20838428808526" cy="489.9077613564242" opacity="0.9705172826016172"></circle><circle r="6.813769088265229" cx="108.73514712011077" cy="427.98499032428464" opacity="0.742650359190317"></circle><circle r="4.753266052356005" cx="772.3674627675772" cy="229.3594996833914" opacity="0.8075182833237001"></circle><circle r="3.6274948161022995" cx="286.089978917222" cy="21.4749796603941" opacity="0.6247715458031587"></circle><circle r="6.144092126850442" cx="528.2775985829248" cy="558.5731007624273" opacity="0.32174127449390477"></circle><circle r="4.54360487686731" cx="35.45067080290743" cy="89.21690910146282" opacity="0.22040891443609334"></circle><circle r="4.382310440730257" cx="70.75022203663356" cy="55.275757917042085" opacity="0.7838096484951828"></circle><circle r="8.923922979717691" cx="493.27366344490713" cy="80.13423148249224" opacity="0.27876313877697356"></circle><circle r="4.125662702213681" cx="334.58359464584663" cy="44.02711930198429" opacity="0.857127854966809"></circle><circle r="5.031416614058861" cx="186.78070966176978" cy="482.34051590458535" opacity="0.7969576852940549"></circle><circle r="6.445336368664316" cx="146.8090340451983" cy="562.7407000501089" opacity="0.9921534650001053"></circle><circle r="4.69174464805093" cx="132.02584750529496" cy="336.0778907388445" opacity="0.21671208245112672"></circle><circle r="2.9866827059430454" cx="43.80805864594208" cy="382.97085525176124" opacity="0.6291811942232912"></circle><circle r="6.767470004106346" cx="109.67506439792385" cy="573.288475872133" opacity="0.17794684554081144"></circle><circle r="4.723590088196849" cx="646.8174206105114" cy="579.5164416533908" opacity="0.37698368564800866"></circle><circle r="8.63656291760424" cx="378.30929658883656" cy="579.0915422908156" opacity="0.6655669059878185"></circle><circle r="3.795093134717984" cx="373.296327237377" cy="509.8200959886977" opacity="0.5539246541916052"></circle><circle r="6.052231020604955" cx="109.25541094463568" cy="786.4827137709769" opacity="0.9724155533146477"></circle><circle r="7.427217060739272" cx="151.11440443303903" cy="727.0496946757172" opacity="0.1265472173802506"></circle><circle r="7.239144500703999" cx="342.11062399668384" cy="744.9713928889136" opacity="0.8065318129474935"></circle><circle r="5.472963875425222" cx="613.9104874351187" cy="345.8695540698882" opacity="0.5457086101062373"></circle><circle r="5.611497084436186" cx="782.5451572245651" cy="257.3134834101091" opacity="0.6240648478351166"></circle><circle r="6.0598173641447906" cx="322.04429401372465" cy="684.7941558165447" opacity="0.7761274490890798"></circle><circle r="5.231976346177756" cx="362.4541430336416" cy="184.52436081766834" opacity="0.5336635167776"></circle><circle r="3.4432948864784443" cx="323.7160143157368" cy="65.06720829592426" opacity="0.8382018850633763"></circle><circle r="7.181053655635243" cx="658.3745851727097" cy="394.52955021070755" opacity="0.9636135993762429"></circle><circle r="6.1354676858604735" cx="711.3043747613225" cy="583.9600883552641" opacity="0.10725594850343592"></circle><circle r="6.720680438201713" cx="305.4848030634192" cy="42.184605263179975" opacity="0.5575375115234619"></circle><circle r="6.900449881633371" cx="42.87892243269262" cy="319.10672521205555" opacity="0.6907823916213514"></circle><circle r="5.003961734207027" cx="276.44747906723467" cy="357.43912617201175" opacity="0.555330945318996"></circle><circle r="6.97557951666545" cx="726.5103310946671" cy="431.1448687326335" opacity="0.6755278284479714"></circle><circle r="6.616452373619264" cx="734.3230694298029" cy="180.86755059828013" opacity="0.33731554872141567"></circle><circle r="5.170962123580049" cx="84.55031958279052" cy="158.4985660583148" opacity="0.15896830805356343"></circle><circle r="4.462665934348847" cx="150.2304104494564" cy="626.0896247738689" opacity="0.3337890263106374"></circle><circle r="3.0994630063430195" cx="633.2887856826611" cy="543.9083407938184" opacity="0.21701360669660955"></circle><circle r="6.654382037285939" cx="781.7532294753488" cy="470.8583192123215" opacity="0.3114884955289956"></circle><circle r="7.557502289697624" cx="383.6074525726593" cy="652.2473453689428" opacity="0.17900053386086406"></circle><circle r="5.138069479323782" cx="438.8708737233485" cy="100.86883737887125" opacity="0.11065354858839643"></circle><circle r="6.495972687694616" cx="593.0230727197733" cy="580.7009845680192" opacity="0.519726976422999"></circle><circle r="7.476039619474626" cx="176.93174901223458" cy="753.9157619060203" opacity="0.9181886712419575"></circle><circle r="5.425580434360096" cx="420.1345053166953" cy="650.6182674558298" opacity="0.8571713795881769"></circle><circle r="6.498138354149875" cx="119.38087514910134" cy="493.2344397999058" opacity="0.5723179566356031"></circle><circle r="7.184654247192823" cx="490.3274106075758" cy="631.0864139688442" opacity="0.53134947622956"></circle><circle r="5.757096396835525" cx="504.76090304277744" cy="464.74943471625863" opacity="0.2628916798237029"></circle><circle r="4.485891034470306" cx="541.1676241326297" cy="527.7265639175413" opacity="0.670743602072252"></circle><circle r="5.101789951936947" cx="694.4546147622098" cy="278.34663699852814" opacity="0.1646525424586699"></circle><circle r="6.51544837760237" cx="525.9111514489136" cy="750.219713635857" opacity="0.8236349911972356"></circle><circle r="8.843664149887012" cx="215.05736500549284" cy="319.0851509743987" opacity="0.8879959399631796"></circle><circle r="4.385112834645347" cx="340.3445170389555" cy="436.11190053810367" opacity="0.6167555919828859"></circle><circle r="7.86146346452178" cx="734.6643446565301" cy="693.6843312739784" opacity="0.9478936472628466"></circle><circle r="3.500924442767945" cx="401.5499936548625" cy="223.7598339246931" opacity="0.4102909015379058"></circle><circle r="7.84111161171313" cx="162.31523455736428" cy="594.944660456233" opacity="0.6449369068137831"></circle><circle r="7.769685343214739" cx="574.4523090262797" cy="133.90075512865127" opacity="0.2665712915416289"></circle><circle r="6.646929966617877" cx="510.6155085731498" cy="212.96863928769574" opacity="0.4709524517176422"></circle><circle r="5.383278456873336" cx="551.256791649935" cy="468.0093255482538" opacity="0.17348625309893534"></circle><circle r="4.8098031695355346" cx="582.7954258485086" cy="347.77460222526196" opacity="0.2198273570297562"></circle><circle r="5.077317295586667" cx="377.17901368878876" cy="391.34435367239723" opacity="0.4375239475733764"></circle><circle r="2.4855633272019246" cx="308.8006913697187" cy="791.4448158587206" opacity="0.5893120748803236"></circle><circle r="5.726423703100107" cx="777.7228072878123" cy="428.54304603492847" opacity="0.7987243347809283"></circle><circle r="4.278637743217673" cx="469.47462021562126" cy="692.563447829399" opacity="0.17815626385295327"></circle><circle r="6.049059963066465" cx="341.0605375160848" cy="783.2795265588879" opacity="0.43367791672375955"></circle><circle r="8.991061263300626" cx="457.5626070555601" cy="507.8807815077436" opacity="0.14452358567925302"></circle><circle r="8.520644425030513" cx="769.3249020189979" cy="664.3272024881403" opacity="0.11539202231921684"></circle><circle r="9.675347623116256" cx="656.5429997607672" cy="185.765739449089" opacity="0.2596964650033171"></circle><circle r="3.2295331527131657" cx="680.9923729463025" cy="711.9100517223193" opacity="0.8163653299106874"></circle><circle r="8.129402432192865" cx="494.9837701447622" cy="125.52637081601756" opacity="0.3241093766655607"></circle><circle r="6.229369246920125" cx="20.31955609336378" cy="141.67176546330404" opacity="0.9838454771266786"></circle><circle r="4.401008048555923" cx="366.7315042529239" cy="769.6818523154018" opacity="0.1447519151319422"></circle><circle r="6.669901190236751" cx="24.314354774643657" cy="21.066874163358268" opacity="0.28553296279149876"></circle><circle r="4.987234210544863" cx="198.1269889454218" cy="508.8557271384915" opacity="0.3032463668631823"></circle><circle r="3.229020606512621" cx="416.7959774597121" cy="239.47327322232866" opacity="0.6316596547097892"></circle><circle r="4.231596043280836" cx="706.831870035119" cy="470.38262997050975" opacity="0.6695244233301163"></circle><circle r="4.8754334981634155" cx="513.1480248842506" cy="173.72458738019304" opacity="0.3588437786534825"></circle><circle r="3.726087430434515" cx="111.27586648520047" cy="166.75833285777605" opacity="0.38767803308612203"></circle><circle r="6.577506448637207" cx="571.6605153909106" cy="514.4658400309675" opacity="0.17521968871729293"></circle><circle r="5.085443938104114" cx="395.59390696451794" cy="615.9615486232673" opacity="0.7761714291973495"></circle><circle r="5.029556453134758" cx="440.410724805885" cy="619.1652077408545" opacity="0.5997450413450347"></circle><circle r="5.547288259252722" cx="758.9163953073238" cy="546.0665583373242" opacity="0.4469164123000715"></circle><circle r="3.039203447650312" cx="772.9016145164898" cy="112.43947849318253" opacity="0.1447937307826627"></circle><circle r="6.4205111589582415" cx="566.729333868212" cy="234.8917421502001" opacity="0.7510297410826551"></circle><circle r="8.224165494207181" cx="226.00830412004447" cy="219.1795185444411" opacity="0.5673020161230107"></circle><circle r="4.994102449286817" cx="700.7527757283392" cy="498.4017279300481" opacity="0.11647623506914395"></circle><circle r="3.8474095590953885" cx="583.9267581680407" cy="169.0949543032146" opacity="0.7427931035313545"></circle><circle r="5.697157463388898" cx="604.3470417675585" cy="402.95157733456665" opacity="0.5248735724440158"></circle><circle r="7.11290495931534" cx="474.21937920435255" cy="209.77078651041896" opacity="0.8469746284271279"></circle><circle r="5.63980478239853" cx="247.80070467434726" cy="624.7902590347784" opacity="0.28590905795326205"></circle><circle r="4.797297983797052" cx="696.0686068497916" cy="196.39687033277838" opacity="0.9047465929711749"></circle><circle r="6.506458589739312" cx="130.54365575921227" cy="368.9438207796007" opacity="0.9698102537434274"></circle><circle r="7.530222032175968" cx="77.25886502912414" cy="737.2777797356506" opacity="0.3286470044729777"></circle><circle r="5.013493517600789" cx="82.68431740792337" cy="489.79735606510735" opacity="0.745185453616689"></circle><circle r="6.854174560798691" cx="315.3509493635076" cy="767.549841316234" opacity="0.9206110936455686"></circle><circle r="6.583283678826239" cx="668.4028765130303" cy="144.89731115921293" opacity="0.34907835033388734"></circle><circle r="5.915613610035878" cx="466.90834464879146" cy="787.509601594836" opacity="0.7039579018109822"></circle><circle r="5.944011214425167" cx="317.6800715505209" cy="299.725584415644" opacity="0.9443637591642904"></circle><circle r="8.216147388675665" cx="54.62712253133057" cy="654.6059888655991" opacity="0.3198367424534855"></circle><circle r="6.8505050295601" cx="277.8113399153416" cy="71.28339249492268" opacity="0.13558050747348965"></circle><circle r="5.267897763270397" cx="38.73011520934257" cy="730.5096692753217" opacity="0.796458660782484"></circle><circle r="5.340365899513333" cx="66.99694637967679" cy="375.7630678666604" opacity="0.7547106819050435"></circle><circle r="4.1881570073422125" cx="10.408913359881067" cy="786.447974094835" opacity="0.6326460700834737"></circle><circle r="2.9493663894526403" cx="788.8084024666265" cy="535.8283264989217" opacity="0.36571656569704714"></circle><circle r="7.46102808605313" cx="81.34453983440271" cy="558.7684677214122" opacity="0.2481342422607573"></circle><circle r="3.9851762778890776" cx="113.36639892237767" cy="647.0984843948706" opacity="0.6108932927958213"></circle><circle r="3.2315875017097704" cx="359.11812587038247" cy="667.630960284716" opacity="0.3452215247491637"></circle><circle r="4.210138323845752" cx="625.038485154106" cy="300.8879732540773" opacity="0.8956267103139742"></circle><circle r="8.346375235473705" cx="297.43793925963416" cy="260.4520839082204" opacity="0.29371736128948467"></circle><circle r="4.40689394567195" cx="123.06796027077104" cy="139.0577250477086" opacity="0.20619121238068466"></circle><circle r="8.382476770018188" cx="271.25275646690244" cy="509.36967405859536" opacity="0.33984913442661935"></circle><circle r="2.7009212839427406" cx="701.6757345643855" cy="66.1932204755463" opacity="0.10600416798030982"></circle><circle r="4.632303581984051" cx="500.2581633161944" cy="772.4117202291226" opacity="0.35761336663306387"></circle><circle r="9.684637185183899" cx="727.4022058385289" cy="646.9749608325345" opacity="0.187988812196257"></circle><circle r="5.1549865919131435" cx="401.500885959723" cy="321.81784244934215" opacity="0.7935726847075333"></circle><circle r="5.2277510570346335" cx="238.29821961427965" cy="366.96234945268094" opacity="0.5383588691636373"></circle><circle r="3.529083259192872" cx="87.31982593855031" cy="606.7665666416682" opacity="0.6056705811262002"></circle><circle r="5.469386522428237" cx="73.49903138167988" cy="248.59955122817175" opacity="0.1887618049481436"></circle><circle r="7.213527559995572" cx="183.1455001168734" cy="206.45962304635717" opacity="0.9483219881602867"></circle><circle r="5.729449443195605" cx="685.8015785470612" cy="27.060338840082483" opacity="0.9635837809538493"></circle><circle r="4.345193270924127" cx="58.07253365211033" cy="217.79308438543507" opacity="0.19264084095724338"></circle><circle r="6.304481886667489" cx="721.301275695477" cy="50.74220831164102" opacity="0.22838417752409343"></circle><circle r="8.564713309386725" cx="556.0300906885789" cy="574.7221391840426" opacity="0.31674957301332574"></circle><circle r="7.5245589511920965" cx="17.39333741346901" cy="424.609975451951" opacity="0.9368272673840943"></circle><circle r="3.8777062314213313" cx="352.3018426790786" cy="357.12885303510825" opacity="0.5066443994824229"></circle><circle r="8.784970202197208" cx="70.83765518810844" cy="17.889438513626644" opacity="0.6038035652720302"></circle><circle r="4.571294920457371" cx="503.99362076961694" cy="719.5600822289456" opacity="0.5485482652696244"></circle><circle r="4.886097887769985" cx="655.7260459837769" cy="280.74928551859387" opacity="0.35622325934696397"></circle><circle r="4.590510324497959" cx="295.55820557398044" cy="627.0031959000809" opacity="0.7172494528951616"></circle><circle r="5.787807718070486" cx="18.46859665136408" cy="236.043363134253" opacity="0.2082555615337568"></circle><circle r="5.627527692616425" cx="513.6396534248246" cy="601.2879394386505" opacity="0.9596096890958036"></circle><circle r="4.848205415662378" cx="649.922799718506" cy="496.12081892788933" opacity="0.6622723188825609"></circle><circle r="5.165252170516997" cx="704.8277738105509" cy="322.61927599457005" opacity="0.5976048041141078"></circle><circle r="4.226091856825066" cx="48.106655570792554" cy="189.07611534659486" opacity="0.13886029287538043"></circle><circle r="4.530401951753905" cx="561.0727708683427" cy="327.51311574310466" opacity="0.11344274830418548"></circle><circle r="7.254084191373048" cx="202.18035913728852" cy="243.04575987871726" opacity="0.42651755683074655"></circle><circle r="9.555867577773295" cx="498.92727390637924" cy="329.71725783685406" opacity="0.17580440002357323"></circle><circle r="6.9167571783347" cx="612.2078854236743" cy="197.87380129900183" opacity="0.2799303981804235"></circle><circle r="6.574456860446086" cx="221.65443514025597" cy="14.42973929602269" opacity="0.7185610152553883"></circle><circle r="3.8754177162852086" cx="556.4255543743561" cy="767.6765859196066" opacity="0.6387252430423672"></circle><circle r="8.32219150689043" cx="579.2096362752695" cy="638.1127500682583" opacity="0.2791742162717792"></circle><circle r="3.566274552166958" cx="374.25302183774033" cy="38.379915990609376" opacity="0.2077324050853494"></circle><circle r="5.313253778370262" cx="15.937107703651995" cy="295.6105394161986" opacity="0.4929947559320379"></circle><circle r="7.687567702650615" cx="687.9088964946774" cy="626.3116368648904" opacity="0.42267449123556844"></circle><circle r="7.182456593878322" cx="780.1044125658906" cy="358.76404657791807" opacity="0.989714150324964"></circle><circle r="6.161420104370208" cx="349.1411045623671" cy="394.4062079760916" opacity="0.732380734991626"></circle><circle r="8.520438711782951" cx="150.00256220932775" cy="434.9786951763989" opacity="0.5704091374826483"></circle><circle r="5.642665443565254" cx="532.9047954124644" cy="641.4839982585663" opacity="0.8835141331709269"></circle><circle r="7.555159231040101" cx="72.57781798698603" cy="461.17533636618896" opacity="0.5171901606621879"></circle><circle r="5.597662925199642" cx="247.01113558136194" cy="667.1511102496147" opacity="0.8519370653381252"></circle><circle r="7.094816278389112" cx="784.0052037615314" cy="575.1459030484132" opacity="0.5663521748797418"></circle><circle r="8.080679088745942" cx="324.42680415308934" cy="185.61442315578404" opacity="0.4891076978862696"></circle><circle r="4.857259448089798" cx="392.05702789555187" cy="703.5389947810393" opacity="0.1718553908809265"></circle><circle r="7.972628817328358" cx="25.407423398944974" cy="59.246871036334404" opacity="0.659504179839595"></circle><circle r="5.011261426681359" cx="740.8245254715163" cy="359.2707244233132" opacity="0.8931064858185741"></circle><circle r="6.147369324382241" cx="374.58601576946995" cy="433.1600861535858" opacity="0.7280527531188128"></circle><circle r="5.166770901075994" cx="442.2741175926209" cy="206.03665964462863" opacity="0.8627210810392951"></circle><circle r="4.032349973741381" cx="268.3499851008165" cy="232.6013987371946" opacity="0.6581842740175031"></circle><circle r="5.055963114672637" cx="92.57029074355316" cy="226.44701220474934" opacity="0.9577532430490914"></circle><circle r="3.9224633973549468" cx="620.8979090382604" cy="511.59706892996" opacity="0.5971680834377553"></circle><circle r="4.245892299107071" cx="470.3168242893649" cy="248.8999760325274" opacity="0.35073502361761977"></circle><circle r="4.444448081205931" cx="498.93269454005963" cy="563.2536625361292" opacity="0.8893197275131349"></circle><circle r="6.703137855994829" cx="247.85296853596833" cy="484.80787088544014" opacity="0.16993251169085594"></circle><circle r="8.453202571793131" cx="310.33027596737463" cy="455.8677342466954" opacity="0.5394813771623059"></circle><circle r="4.812037308553412" cx="421.88370084002327" cy="772.7107302212046" opacity="0.28969301496442695"></circle><circle r="4.045172503668644" cx="55.6848092673297" cy="431.94525325984654" opacity="0.8988465989741813"></circle><circle r="3.2760416501688554" cx="83.61274232779952" cy="778.882582226664" opacity="0.5906170382203962"></circle><circle r="5.186514285165638" cx="767.95426935689" cy="395.41522230068347" opacity="0.24819134474412327"></circle><circle r="4.006131098610081" cx="528.7772347176702" cy="294.6676432613097" opacity="0.9619954724897496"></circle><circle r="4.742512203817477" cx="432.2922818654435" cy="261.9545558433994" opacity="0.21181471817829708"></circle><circle r="4.738002705244194" cx="759.8415890596577" cy="199.45262051291235" opacity="0.7175960306172036"></circle><circle r="5.368346284898246" cx="774.5012745354146" cy="511.2289028341683" opacity="0.1581657428060818"></circle><circle r="3.639294714646355" cx="386.7540044348361" cy="680.0331144252953" opacity="0.2765122672336642"></circle><circle r="6.706109362639018" cx="98.70196180597846" cy="323.657404420885" opacity="0.3033963405524402"></circle><circle r="6.808527707648693" cx="279.98020256263214" cy="778.7761016408003" opacity="0.7434860361625656"></circle><circle r="11.481273995860612" cx="676.4161433978613" cy="236.53792821189035" opacity="0.7087012289856708"></circle><circle r="9.29896260413014" cx="202.20575328441706" cy="280.18489613602793" opacity="0.13950351992290977"></circle><circle r="6.039720404415586" cx="149.31505630156772" cy="396.1554882241331" opacity="0.7819240430907868"></circle><circle r="4.86897905596406" cx="111.88572407108909" cy="281.1840395589978" opacity="0.6282942368646008"></circle><circle r="3.926280631487511" cx="406.02531096600643" cy="511.77092569983506" opacity="0.4457203545224171"></circle><circle r="4.714754350943128" cx="260.4959999042798" cy="261.2555121855835" opacity="0.8915443965819317"></circle><circle r="8.801391865425817" cx="217.7842266826289" cy="467.8626784627357" opacity="0.3086008876787707"></circle><circle r="3.390141405349257" cx="307.4664759442026" cy="79.9431819731481" opacity="0.994467362392347"></circle><circle r="5.55656652586845" cx="312.95872480092464" cy="549.5873513166048" opacity="0.6651161675822979"></circle><circle r="3.7723626759879942" cx="636.1195300462592" cy="10.633941652825753" opacity="0.36404673713508306"></circle><circle r="8.70679518037021" cx="194.07129273990316" cy="582.6746349752408" opacity="0.6347125463907991"></circle><circle r="3.6808191793488962" cx="472.6706099220478" cy="575.1570856656065" opacity="0.7641975151240675"></circle><circle r="4.1051597121952135" cx="378.28073821566414" cy="75.5558863951492" opacity="0.9896174094840319"></circle><circle r="6.64220346823588" cx="620.398169660383" cy="706.8026366873156" opacity="0.4235402696318382"></circle><circle r="7.1483088977692315" cx="614.7440895968" cy="634.4519016712546" opacity="0.539087602677315"></circle><circle r="6.077596191981376" cx="430.2219774179515" cy="17.559492420805036" opacity="0.4041865372239697"></circle><circle r="3.528353203097633" cx="108.1469469776533" cy="212.12438512546044" opacity="0.2897139014167903"></circle><circle r="7.320100718549316" cx="733.5978903792554" cy="98.41270502738894" opacity="0.4324427748018109"></circle><circle r="4.600448778942056" cx="39.44393998228814" cy="357.15416384061433" opacity="0.7691768241712234"></circle><circle r="5.324064944864429" cx="143.46138231352643" cy="784.7195112431745" opacity="0.372685739140708"></circle><circle r="4.969593610232156" cx="12.758571420938166" cy="721.1980117176405" opacity="0.9682964507847361"></circle><circle r="4.891149143761766" cx="788.1864727053775" cy="696.0762559253793" opacity="0.2737215995540146"></circle><circle r="4.306469153789125" cx="87.16678376822767" cy="633.6161988181979" opacity="0.2553546640484706"></circle><circle r="5.030376362375049" cx="672.4872059322155" cy="313.9261946223516" opacity="0.4579535695495188"></circle><circle r="3.106535870762798" cx="699.9422750516663" cy="95.19029938670356" opacity="0.7886707466139559"></circle><circle r="4.7556277114381125" cx="753.4716415584256" cy="14.522667133271646" opacity="0.6136178263430646"></circle><circle r="6.08402958862535" cx="182.62784071311896" cy="633.6547336522215" opacity="0.4050882286347941"></circle><circle r="3.9990444170994683" cx="561.1872327293835" cy="167.76112360545383" opacity="0.11737217766397728"></circle><circle r="6.129563259414869" cx="161.30474335401195" cy="495.09339462054464" opacity="0.10400861171890574"></circle><circle r="5.355841516497634" cx="789.1611277214814" cy="622.9976213283531" opacity="0.2288664446529942"></circle><circle r="5.470888229521508" cx="528.6714945357695" cy="787.1644452930809" opacity="0.8044485744282005"></circle><circle r="6.13975887233099" cx="723.2897843677835" cy="221.24201886911635" opacity="0.991024886891497"></circle><circle r="6.86127526601466" cx="302.56635444533356" cy="110.00556529628048" opacity="0.2237183725388277"></circle><circle r="5.5761882887933165" cx="351.8163500968855" cy="101.38753744309537" opacity="0.7433930444031337"></circle><circle r="4.2546869909549905" cx="661.7312603972456" cy="601.3368684424757" opacity="0.7906398302202303"></circle><circle r="6.175688263382488" cx="404.8185662916244" cy="273.4834223054187" opacity="0.25617601494708864"></circle><circle r="3.3030761100965655" cx="72.93700853093043" cy="84.57020835626929" opacity="0.6899564388805246"></circle><circle r="8.503949628911267" cx="749.0974801164813" cy="582.8813452561919" opacity="0.610698076829916"></circle><circle r="4.006976964927302" cx="342.65907657351613" cy="323.6324509052223" opacity="0.10841356250715789"></circle><circle r="5.169559645312113" cx="500.71001724683424" cy="237.98625833140957" opacity="0.8046397212989491"></circle><circle r="4.748407920069605" cx="469.77059787531107" cy="465.85161156400073" opacity="0.37545666638768305"></circle><circle r="8.793295438805142" cx="473.27747183288216" cy="169.60196693219416" opacity="0.802648731112654"></circle><circle r="4.251464834712241" cx="106.67147220283287" cy="745.257113735199" opacity="0.11902856926983921"></circle><circle r="7.115093367221829" cx="321.2522767867862" cy="369.36596390447346" opacity="0.29383827774880417"></circle><circle r="3.553048127550421" cx="426.4630906885009" cy="187.44035724036954" opacity="0.507585393666695"></circle><circle r="4.061970550722676" cx="97.6016804895843" cy="373.9480687334306" opacity="0.19991896558726724"></circle><circle r="4.230297095499386" cx="310.92248779967815" cy="11.21581282052325" opacity="0.8164353436563212"></circle><circle r="3.894670582578484" cx="9.404701338099228" cy="461.2251377918762" opacity="0.1135622813760732"></circle><circle r="6.881104629152349" cx="213.10408039200283" cy="612.4829433795674" opacity="0.8322204737963208"></circle><circle r="5.422599404980636" cx="13.532722850983452" cy="392.82010206596163" opacity="0.7191738542848628"></circle><circle r="3.4125959513055957" cx="101.82785419070734" cy="260.160033008164" opacity="0.4895986295850182"></circle><circle r="8.391467177266591" cx="462.90720343769567" cy="654.7327709613074" opacity="0.85940107125893"></circle><circle r="2.910117714924996" cx="658.8346521464293" cy="65.65358132566996" opacity="0.8524207765601817"></circle><circle r="7.470968245614487" cx="279.20953245279287" cy="293.59778292494224" opacity="0.7581741869687564"></circle><circle r="9.247959399933356" cx="532.2133870667996" cy="133.77145679465565" opacity="0.4033629998428542"></circle><circle r="5.733564161849857" cx="331.36165767616257" cy="579.7396308750169" opacity="0.7076901889225281"></circle><circle r="6.5279974077284635" cx="594.5602897087423" cy="674.4851065016278" opacity="0.10264819097530602"></circle><circle r="3.911869578262934" cx="316.86887659376754" cy="650.4113890520425" opacity="0.3011846950636142"></circle><circle r="4.164327765998177" cx="718.1841747923942" cy="16.631258131704588" opacity="0.5323841446368409"></circle><circle r="3.6898979786232218" cx="223.8072360419265" cy="46.62053304026523" opacity="0.7176681067161672"></circle><circle r="5.251258203919395" cx="727.9123331430311" cy="552.6584071369246" opacity="0.7610603591440143"></circle><circle r="6.581346035721758" cx="320.2102310255931" cy="340.93456166050817" opacity="0.40726175556537647"></circle><circle r="6.869062001955934" cx="47.585261489965944" cy="269.9701647919705" opacity="0.2135668162996908"></circle><circle r="6.31815175131809" cx="617.5470681474843" cy="167.4977048640287" opacity="0.426309483841777"></circle><circle r="4.279167599379985" cx="104.85609760003166" cy="46.10141576923688" opacity="0.7022945486421376"></circle><circle r="6.226149438213167" cx="579.2934364319714" cy="94.72923391573896" opacity="0.8193445609840054"></circle><circle r="6.618762816241727" cx="192.4057216718785" cy="37.27044280649317" opacity="0.5918288579713095"></circle><circle r="5.3084835106558055" cx="652.8109174344924" cy="649.802348331669" opacity="0.6220540452152064"></circle><circle r="7.878604337910282" cx="456.47791217253786" cy="758.7721014975044" opacity="0.8094945934262957"></circle><circle r="8.087598981549107" cx="293.57773851989606" cy="324.37505975291936" opacity="0.5903520148896586"></circle><circle r="6.548269309898293" cx="465.9845681509005" cy="330.930649262202" opacity="0.5892721226338146"></circle><circle r="8.869490141236975" cx="58.35907721347134" cy="704.1288844925516" opacity="0.6525388237925909"></circle><circle r="4.437774480112797" cx="173.170364016203" cy="785.7750681160774" opacity="0.4740046171581641"></circle><circle r="4.755499125215781" cx="70.63118286125008" cy="593.2979402791314" opacity="0.553381024528111"></circle><circle r="4.594667479771202" cx="597.1744426142992" cy="505.1829790790474" opacity="0.17188692034457834"></circle><circle r="6.296622017053414" cx="178.73679945659282" cy="138.63828754111447" opacity="0.6782762523382571"></circle><circle r="5.339222345045444" cx="12.196263471102467" cy="103.09220107565356" opacity="0.7600100651699561"></circle><circle r="4.464523663863786" cx="418.1282520791654" cy="556.3735894608328" opacity="0.628308974636209"></circle><circle r="6.544689947056874" cx="12.995812533426076" cy="591.4662521377036" opacity="0.3948107435506384"></circle><circle r="4.9798480061331745" cx="240.97859366150885" cy="725.9190037938213" opacity="0.6060741221087989"></circle><circle r="4.449308494251841" cx="653.4406680583157" cy="465.0936396557873" opacity="0.46654539913246407"></circle><circle r="4.985693192177767" cx="702.112554916998" cy="535.419468282612" opacity="0.8366168342785024"></circle></g></svg>