<?xml version="1.0" encoding="utf-8"?>
<!-- Generator: Adobe Illustrator 26.3.1, SVG Export Plug-In . SVG Version: 6.00 Build 0)  -->
<svg version="1.1" id="Warstwa_1" xmlns="http://www.w3.org/2000/svg" xmlns:xlink="http://www.w3.org/1999/xlink" x="0px" y="0px"
	 viewBox="0 0 709.3 210.1" style="enable-background:new 0 0 709.3 210.1;" xml:space="preserve">
<style type="text/css">
	.st0{fill:#AAA4FF;}
	.st1{fill:url(#SVGID_1_);}
</style>
<g>
	<path class="st0" d="M111.9,110.1c-0.2,0-0.3,0-0.5,0h-0.3l-5.9-0.4l2.1-5.5c0.2-0.5,0.4-1.1,0.6-1.6c9.3-22.5,28.3-39.4,51.6-46.7
		c2.4-4.2,5-8.2,7.8-12.1c-0.9,0-1.9,0-2.8,0c-8.8,0-17.3,1.1-25.4,3.1c-36,8.9-64.4,36.4-73.7,71.3c-0.2,0.7-0.3,1.3-0.5,2
		c0.3,0,0.7,0,1-0.1c1.8-0.1,3.5-0.1,5.3-0.1c27.4,0,52.5,10.2,71.3,26.8c-1.1-6.9-1.6-14-1.6-21.2c0-2.4,0.1-4.8,0.2-7.2
		c-7.9-4-16.4-6.6-25.4-7.8C114.5,110.4,113.2,110.3,111.9,110.1z"/>
	
		<linearGradient id="SVGID_1_" gradientUnits="userSpaceOnUse" x1="119.6639" y1="986.2711" x2="204.4071" y2="943.0923" gradientTransform="matrix(1 0 0 1 0 -868)">
		<stop  offset="0" style="stop-color:#5B48D9"/>
		<stop  offset="0.2106" style="stop-color:#5B4CDB"/>
		<stop  offset="0.4263" style="stop-color:#5D58E1"/>
		<stop  offset="0.6445" style="stop-color:#5F6DEA"/>
		<stop  offset="0.8631" style="stop-color:#6289F8"/>
		<stop  offset="0.9189" style="stop-color:#6392FC"/>
	</linearGradient>
	<path class="st1" d="M195.5,58.2c0.1,0,0.2,0,0.3,0c-2.1,2.3-4.2,4.8-6.1,7.3c-11.6,15.2-19,33.2-21.5,52
		c-0.6,4.6-0.9,9.3-0.9,13.9c-7.2-7.8-15.7-14-25.4-18.7c-8-3.8-16.6-6.4-25.5-7.5c-1.2-0.2-2.4-0.3-3.6-0.4c0-0.1,0.1-0.1,0.1-0.2
		c7.9-19.2,23.9-34.6,43.9-42.1c6.2-2.3,12.6-3.9,19.1-4.6C182.4,57.2,189,57.3,195.5,58.2L195.5,58.2z"/>
	<g>
		<path d="M207,130.8c1.3,5,5.7,6.6,9.2,6.6c2.8,0,5.7-1.1,5.7-3.3c0-1.5-0.9-2.5-3.2-3.3l-7.7-3.2c-10.4-3.7-10.9-10.6-10.9-12.6
			c0-8.8,7.8-13.4,17.2-13.4c5,0,11.7,1.4,15.8,9.2l-9.8,4.5c-1.1-3.5-4.3-4.2-6.2-4.2c-2.4,0-4.9,1.4-4.9,3.6
			c0,1.9,1.9,2.9,4.1,3.8l6.6,2.6c10.3,3,11.3,9.7,11.3,12.6c0,9-8.3,13.6-17.9,13.6c-6.5,0-15.4-2.1-18.4-11.2L207,130.8z"/>
		<path d="M287.6,102.5v43.8h-12.7v-6.4c-3.2,4.5-7.3,7.3-13.8,7.3c-13.3,0-21.4-10.3-21.4-23.1c0-12.3,7.4-22.6,21.1-22.6
			c5.9,0,11,2.9,14,6.9v-6L287.6,102.5L287.6,102.5z M263.8,136.9c6.2,0,11.5-4,11.5-12c0-8.1-4.9-13.1-11.8-13.1
			c-7,0-10.9,5.6-10.9,12.4C252.5,131.3,256.8,136.9,263.8,136.9z"/>
		<path d="M305.2,83.6c4.5,0,8.1,3,8.1,7.3c0,4.2-3.6,7.1-8.1,7.1c-4.6,0-8-2.9-8-7.1C297.2,86.6,300.6,83.6,305.2,83.6z
			 M298.7,146.3v-43.8h12.7v43.8H298.7z"/>
		<path d="M322.7,146.3V84.5h12.7v61.8H322.7z"/>
		<path d="M407.4,122.8v23.5h-12.6v-23.6c0-6-1.7-10.7-7.3-10.7c-5.6,0-7.3,4.9-7.3,10.8v23.5h-12.8v-43.8h12.7v6
			c2.8-4.4,6.9-6.9,11.7-6.9c6.7,0,11.2,2.9,13.4,7.3c3.3-6.4,9.7-7.3,13.8-7.3c12.3,0,15.6,9.8,15.6,20.9v23.8h-12.7v-23.6
			c0-6-1.7-10.7-7.3-10.7C409.1,112,407.4,116.9,407.4,122.8z"/>
		<path d="M466.6,101.5c12.8,0,24.1,9.2,24.1,22.8c0,13.7-11.3,22.9-24.1,22.9c-12.7,0-24.1-9.1-24.1-22.9
			C442.5,110.7,453.8,101.5,466.6,101.5z M466.6,136.3c6.3,0,11.7-5.1,11.7-12c0-6.8-5.4-11.9-11.7-11.9c-6.2,0-11.7,5-11.7,11.9
			C454.9,131.3,460.3,136.3,466.6,136.3z"/>
		<path d="M498.9,102.5h12.7v6c3.7-5.1,8.3-6.9,13.6-6.9c12.3,0,15.6,9.8,15.6,20.9v23.8h-12.7v-23.6c0-6.1-2.2-10.7-8.1-10.7
			c-5.9,0-8.4,4.7-8.4,10.8v23.5h-12.7V102.5L498.9,102.5z"/>
		<path d="M594.1,138.6c-6.2,6.8-14.5,8.6-20.4,8.6c-16.2,0-25.1-10.2-25.1-22.6c0-12.9,10.1-23.1,24.2-23.1
			c12.1,0,23.8,8.4,23.8,25.8h-35.3c0.3,5.5,5.3,9.5,13.4,9.5c4.5,0,9.1-2.3,12.1-5.2L594.1,138.6z M561.4,119.7h22
			c-0.9-5.6-6.6-7.8-10.9-7.8C568.4,111.9,563,113.8,561.4,119.7z"/>
		<path d="M632.5,102.5h14l-28.4,63.8h-12.8l10-23.7l-18-40.2h14.4l10.4,27.4L632.5,102.5z"/>
	</g>
</g>
</svg>
